
<svg id="visual" viewBox="0 0 960 540" width="960" height="540" xmlns="http://www.w3.org/2000/svg" xmlns:xlink="http://www.w3.org/1999/xlink" version="1.1"><rect x="0" y="0" width="960" height="540" fill="#e5e5e5"></rect><defs><linearGradient id="grad1_0" x1="43.8%" y1="0%" x2="100%" y2="100%"><stop offset="14.444444444444446%" stop-color="#e5e5e5" stop-opacity="1"></stop><stop offset="85.55555555555554%" stop-color="#e5e5e5" stop-opacity="1"></stop></linearGradient></defs><defs><linearGradient id="grad2_0" x1="0%" y1="0%" x2="56.3%" y2="100%"><stop offset="14.444444444444446%" stop-color="#e5e5e5" stop-opacity="1"></stop><stop offset="85.55555555555554%" stop-color="#e5e5e5" stop-opacity="1"></stop></linearGradient></defs><g transform="translate(960, 0)"><path d="M0 378C-43.7 381 -87.3 384 -116.8 359.5C-146.3 335 -161.6 283 -181.6 250C-201.7 217 -226.5 202.9 -251.6 182.8C-276.7 162.7 -302.2 136.5 -323.4 105.1C-344.5 73.6 -361.2 36.8 -378 0L0 0Z" fill="#FFF"></path></g><g transform="translate(0, 540)"><path d="M0 -378C45.3 -382.3 90.7 -386.6 116.8 -359.5C143 -332.4 150 -273.9 181.6 -250C213.3 -226.1 269.7 -236.7 301 -218.7C332.2 -200.6 338.5 -154 347.1 -112.8C355.8 -71.6 366.9 -35.8 378 0L0 0Z" fill="#FFF"></path></g></svg>