<svg id="visual" viewBox="0 0 960 540" width="960" height="540" xmlns="http://www.w3.org/2000/svg" xmlns:xlink="http://www.w3.org/1999/xlink" version="1.1"><path d="M0 60L14.5 54.7C29 49.3 58 38.7 87.2 35.2C116.3 31.7 145.7 35.3 174.8 36.2C204 37 233 35 262 33.2C291 31.3 320 29.7 349 35.2C378 40.7 407 53.3 436.2 52.5C465.3 51.7 494.7 37.3 523.8 31.8C553 26.3 582 29.7 611 36.8C640 44 669 55 698 59.5C727 64 756 62 785.2 56.5C814.3 51 843.7 42 872.8 41.2C902 40.3 931 47.7 945.5 51.3L960 55L960 0L945.5 0C931 0 902 0 872.8 0C843.7 0 814.3 0 785.2 0C756 0 727 0 698 0C669 0 640 0 611 0C582 0 553 0 523.8 0C494.7 0 465.3 0 436.2 0C407 0 378 0 349 0C320 0 291 0 262 0C233 0 204 0 174.8 0C145.7 0 116.3 0 87.2 0C58 0 29 0 14.5 0L0 0Z" fill="#eeeeee"></path><path d="M0 152L14.5 158.3C29 164.7 58 177.3 87.2 178.3C116.3 179.3 145.7 168.7 174.8 171.3C204 174 233 190 262 188.2C291 186.3 320 166.7 349 163.2C378 159.7 407 172.3 436.2 170.5C465.3 168.7 494.7 152.3 523.8 151.3C553 150.3 582 164.7 611 178.2C640 191.7 669 204.3 698 207C727 209.7 756 202.3 785.2 184.3C814.3 166.3 843.7 137.7 872.8 140.5C902 143.3 931 177.7 945.5 194.8L960 212L960 53L945.5 49.3C931 45.7 902 38.3 872.8 39.2C843.7 40 814.3 49 785.2 54.5C756 60 727 62 698 57.5C669 53 640 42 611 34.8C582 27.7 553 24.3 523.8 29.8C494.7 35.3 465.3 49.7 436.2 50.5C407 51.3 378 38.7 349 33.2C320 27.7 291 29.3 262 31.2C233 33 204 35 174.8 34.2C145.7 33.3 116.3 29.7 87.2 33.2C58 36.7 29 47.3 14.5 52.7L0 58Z" fill="#ececec"></path><path d="M0 212L14.5 215.5C29 219 58 226 87.2 223.2C116.3 220.3 145.7 207.7 174.8 207.7C204 207.7 233 220.3 262 226.7C291 233 320 233 349 233C378 233 407 233 436.2 230.3C465.3 227.7 494.7 222.3 523.8 225C553 227.7 582 238.3 611 243.7C640 249 669 249 698 244.5C727 240 756 231 785.2 220.3C814.3 209.7 843.7 197.3 872.8 204.7C902 212 931 239 945.5 252.5L960 266L960 210L945.5 192.8C931 175.7 902 141.3 872.8 138.5C843.7 135.7 814.3 164.3 785.2 182.3C756 200.3 727 207.7 698 205C669 202.3 640 189.7 611 176.2C582 162.7 553 148.3 523.8 149.3C494.7 150.3 465.3 166.7 436.2 168.5C407 170.3 378 157.7 349 161.2C320 164.7 291 184.3 262 186.2C233 188 204 172 174.8 169.3C145.7 166.7 116.3 177.3 87.2 176.3C58 175.3 29 162.7 14.5 156.3L0 150Z" fill="#e9e9e9"></path><path d="M0 244L14.5 256.7C29 269.3 58 294.7 87.2 305.5C116.3 316.3 145.7 312.7 174.8 308.2C204 303.7 233 298.3 262 292C291 285.7 320 278.3 349 281C378 283.7 407 296.3 436.2 301.7C465.3 307 494.7 305 523.8 313C553 321 582 339 611 339C640 339 669 321 698 316.5C727 312 756 321 785.2 316.5C814.3 312 843.7 294 872.8 295C902 296 931 316 945.5 326L960 336L960 264L945.5 250.5C931 237 902 210 872.8 202.7C843.7 195.3 814.3 207.7 785.2 218.3C756 229 727 238 698 242.5C669 247 640 247 611 241.7C582 236.3 553 225.7 523.8 223C494.7 220.3 465.3 225.7 436.2 228.3C407 231 378 231 349 231C320 231 291 231 262 224.7C233 218.3 204 205.7 174.8 205.7C145.7 205.7 116.3 218.3 87.2 221.2C58 224 29 217 14.5 213.5L0 210Z" fill="#e7e7e7"></path><path d="M0 384L14.5 388.5C29 393 58 402 87.2 406.5C116.3 411 145.7 411 174.8 407.5C204 404 233 397 262 395.3C291 393.7 320 397.3 349 400C378 402.7 407 404.3 436.2 407C465.3 409.7 494.7 413.3 523.8 416C553 418.7 582 420.3 611 420.3C640 420.3 669 418.7 698 420.5C727 422.3 756 427.7 785.2 430.3C814.3 433 843.7 433 872.8 427.7C902 422.3 931 411.7 945.5 406.3L960 401L960 334L945.5 324C931 314 902 294 872.8 293C843.7 292 814.3 310 785.2 314.5C756 319 727 310 698 314.5C669 319 640 337 611 337C582 337 553 319 523.8 311C494.7 303 465.3 305 436.2 299.7C407 294.3 378 281.7 349 279C320 276.3 291 283.7 262 290C233 296.3 204 301.7 174.8 306.2C145.7 310.7 116.3 314.3 87.2 303.5C58 292.7 29 267.3 14.5 254.7L0 242Z" fill="#e5e5e5"></path><path d="M0 438L14.5 439C29 440 58 442 87.2 444.8C116.3 447.7 145.7 451.3 174.8 448.7C204 446 233 437 262 431.5C291 426 320 424 349 426.7C378 429.3 407 436.7 436.2 441.2C465.3 445.7 494.7 447.3 523.8 452.7C553 458 582 467 611 466.2C640 465.3 669 454.7 698 452.8C727 451 756 458 785.2 461.5C814.3 465 843.7 465 872.8 462.3C902 459.7 931 454.3 945.5 451.7L960 449L960 399L945.5 404.3C931 409.7 902 420.3 872.8 425.7C843.7 431 814.3 431 785.2 428.3C756 425.7 727 420.3 698 418.5C669 416.7 640 418.3 611 418.3C582 418.3 553 416.7 523.8 414C494.7 411.3 465.3 407.7 436.2 405C407 402.3 378 400.7 349 398C320 395.3 291 391.7 262 393.3C233 395 204 402 174.8 405.5C145.7 409 116.3 409 87.2 404.5C58 400 29 391 14.5 386.5L0 382Z" fill="#e1e1e1"></path><path d="M0 476L14.5 473.3C29 470.7 58 465.3 87.2 467.2C116.3 469 145.7 478 174.8 475.3C204 472.7 233 458.3 262 454.7C291 451 320 458 349 464.3C378 470.7 407 476.3 436.2 477.3C465.3 478.3 494.7 474.7 523.8 476.3C553 478 582 485 611 485C640 485 669 478 698 479.8C727 481.7 756 492.3 785.2 496.8C814.3 501.3 843.7 499.7 872.8 495.2C902 490.7 931 483.3 945.5 479.7L960 476L960 447L945.5 449.7C931 452.3 902 457.7 872.8 460.3C843.7 463 814.3 463 785.2 459.5C756 456 727 449 698 450.8C669 452.7 640 463.3 611 464.2C582 465 553 456 523.8 450.7C494.7 445.3 465.3 443.7 436.2 439.2C407 434.7 378 427.3 349 424.7C320 422 291 424 262 429.5C233 435 204 444 174.8 446.7C145.7 449.3 116.3 445.7 87.2 442.8C58 440 29 438 14.5 437L0 436Z" fill="#dddddd"></path><path d="M0 514L14.5 513.2C29 512.3 58 510.7 87.2 511.5C116.3 512.3 145.7 515.7 174.8 512.8C204 510 233 501 262 498.3C291 495.7 320 499.3 349 501.2C378 503 407 503 436.2 503C465.3 503 494.7 503 523.8 504C553 505 582 507 611 508.8C640 510.7 669 512.3 698 514C727 515.7 756 517.3 785.2 517.3C814.3 517.3 843.7 515.7 872.8 514.8C902 514 931 514 945.5 514L960 514L960 474L945.5 477.7C931 481.3 902 488.7 872.8 493.2C843.7 497.7 814.3 499.3 785.2 494.8C756 490.3 727 479.7 698 477.8C669 476 640 483 611 483C582 483 553 476 523.8 474.3C494.7 472.7 465.3 476.3 436.2 475.3C407 474.3 378 468.7 349 462.3C320 456 291 449 262 452.7C233 456.3 204 470.7 174.8 473.3C145.7 476 116.3 467 87.2 465.2C58 463.3 29 468.7 14.5 471.3L0 474Z" fill="#dadada"></path><path d="M0 541L14.5 541C29 541 58 541 87.2 541C116.3 541 145.7 541 174.8 541C204 541 233 541 262 541C291 541 320 541 349 541C378 541 407 541 436.2 541C465.3 541 494.7 541 523.8 541C553 541 582 541 611 541C640 541 669 541 698 541C727 541 756 541 785.2 541C814.3 541 843.7 541 872.8 541C902 541 931 541 945.5 541L960 541L960 512L945.5 512C931 512 902 512 872.8 512.8C843.7 513.7 814.3 515.3 785.2 515.3C756 515.3 727 513.7 698 512C669 510.3 640 508.7 611 506.8C582 505 553 503 523.8 502C494.7 501 465.3 501 436.2 501C407 501 378 501 349 499.2C320 497.3 291 493.7 262 496.3C233 499 204 508 174.8 510.8C145.7 513.7 116.3 510.3 87.2 509.5C58 508.7 29 510.3 14.5 511.2L0 512Z" fill="#d6d6d6"></path></svg>