<svg id="visual" viewBox="0 0 960 540" width="960" height="540" xmlns="http://www.w3.org/2000/svg" xmlns:xlink="http://www.w3.org/1999/xlink" version="1.1"><path d="M0 33L87 28L175 39L262 28L349 23L436 28L524 60L611 33L698 39L785 50L873 23L960 39L960 0L873 0L785 0L698 0L611 0L524 0L436 0L349 0L262 0L175 0L87 0L0 0Z" fill="#e5e5e5"></path><path d="M0 141L87 131L175 125L262 141L349 201L436 147L524 185L611 114L698 136L785 104L873 141L960 174L960 37L873 21L785 48L698 37L611 31L524 58L436 26L349 21L262 26L175 37L87 26L0 31Z" fill="#e8e8e8"></path><path d="M0 168L87 163L175 174L262 185L349 228L436 174L524 212L611 168L698 163L785 125L873 168L960 190L960 172L873 139L785 102L698 134L611 112L524 183L436 145L349 199L262 139L175 123L87 129L0 139Z" fill="#ebebeb"></path><path d="M0 282L87 260L175 206L262 260L349 276L436 222L524 271L611 255L698 195L785 179L873 217L960 298L960 188L873 166L785 123L698 161L611 166L524 210L436 172L349 226L262 183L175 172L87 161L0 166Z" fill="#eeeeee"></path><path d="M0 298L87 298L175 244L262 303L349 309L436 239L524 303L611 271L698 239L785 217L873 244L960 320L960 296L873 215L785 177L698 193L611 253L524 269L436 220L349 274L262 258L175 204L87 258L0 280Z" fill="#f1f1f1"></path><path d="M0 401L87 422L175 395L262 401L349 384L436 384L524 411L611 374L698 401L785 395L873 406L960 411L960 318L873 242L785 215L698 237L611 269L524 301L436 237L349 307L262 301L175 242L87 296L0 296Z" fill="#f3f3f3"></path><path d="M0 428L87 433L175 428L262 411L349 422L436 401L524 428L611 411L698 433L785 417L873 433L960 433L960 409L873 404L785 393L698 399L611 372L524 409L436 382L349 382L262 399L175 393L87 420L0 399Z" fill="#f6f6f6"></path><path d="M0 465L87 465L175 444L262 455L349 460L436 449L524 471L611 449L698 460L785 449L873 471L960 476L960 431L873 431L785 415L698 431L611 409L524 426L436 399L349 420L262 409L175 426L87 431L0 426Z" fill="#f9f9f9"></path><path d="M0 525L87 514L175 519L262 509L349 519L436 525L524 525L611 530L698 530L785 503L873 503L960 514L960 474L873 469L785 447L698 458L611 447L524 469L436 447L349 458L262 453L175 442L87 463L0 463Z" fill="#fcfcfc"></path><path d="M0 541L87 541L175 541L262 541L349 541L436 541L524 541L611 541L698 541L785 541L873 541L960 541L960 512L873 501L785 501L698 528L611 528L524 523L436 523L349 517L262 507L175 517L87 512L0 523Z" fill="#ffffff"></path></svg>